<svg xmlns="http://www.w3.org/2000/svg" viewBox="0 0 512 512">
  <defs>
    <linearGradient id="bg" x1="0%" y1="0%" x2="100%" y2="100%">
      <stop offset="0%" style="stop-color:#2563eb"/>
      <stop offset="100%" style="stop-color:#1d4ed8"/>
    </linearGradient>
  </defs>
  <!-- Background -->
  <rect width="512" height="512" rx="96" fill="url(#bg)"/>
  <!-- Shield Icon -->
  <path d="M256 80c-60 0-120 30-140 50v140c0 80 60 140 140 180 80-40 140-100 140-180V130c-20-20-80-50-140-50z"
        fill="none" stroke="white" stroke-width="24" stroke-linejoin="round"/>
  <!-- Heart in shield -->
  <path d="M256 200c-15-25-45-25-55-5-10 25 5 50 55 85 50-35 65-60 55-85-10-20-40-20-55 5z"
        fill="white"/>
  <!-- Text SL -->
  <text x="256" y="420" font-family="Arial, sans-serif" font-size="80" font-weight="bold"
        fill="white" text-anchor="middle">SafeLife</text>
</svg>
