<svg xmlns="http://www.w3.org/2000/svg" viewBox="0 0 96 96" width="96" height="96">
  <defs>
    <linearGradient id="bg" x1="0%" y1="0%" x2="100%" y2="100%">
      <stop offset="0%" style="stop-color:#2563eb"/>
      <stop offset="100%" style="stop-color:#1d4ed8"/>
    </linearGradient>
  </defs>
  <rect width="96" height="96" rx="18" fill="url(#bg)"/>
  <g transform="scale(0.1875)">
    <path d="M256 100c-50 0-100 25-120 45v120c0 70 50 120 120 160 70-40 120-90 120-160V145c-20-20-70-45-120-45z"
          fill="none" stroke="white" stroke-width="20" stroke-linejoin="round"/>
    <path d="M256 190c-12-20-38-20-48-5-10 20 5 45 48 75 43-30 58-55 48-75-10-15-36-15-48 5z"
          fill="white"/>
  </g>
</svg>